<svg width="32" height="32" viewBox="0 0 32 32" fill="none" xmlns="http://www.w3.org/2000/svg">
<path d="M12.8333 6.5H7.55556C6.97259 6.5 6.5 6.97259 6.5 7.55556V14.9444C6.5 15.5274 6.97259 16 7.55556 16H12.8333C13.4163 16 13.8889 15.5274 13.8889 14.9444V7.55556C13.8889 6.97259 13.4163 6.5 12.8333 6.5Z" stroke="#272C30" stroke-width="2.4" stroke-linecap="round" stroke-linejoin="round"/>
<path d="M24.4444 6.5H19.1667C18.5837 6.5 18.1111 6.97259 18.1111 7.55556V10.7222C18.1111 11.3052 18.5837 11.7778 19.1667 11.7778H24.4444C25.0274 11.7778 25.5 11.3052 25.5 10.7222V7.55556C25.5 6.97259 25.0274 6.5 24.4444 6.5Z" stroke="#272C30" stroke-width="2.4" stroke-linecap="round" stroke-linejoin="round"/>
<path d="M24.4444 16H19.1667C18.5837 16 18.1111 16.4726 18.1111 17.0556V24.4444C18.1111 25.0274 18.5837 25.5 19.1667 25.5H24.4444C25.0274 25.5 25.5 25.0274 25.5 24.4444V17.0556C25.5 16.4726 25.0274 16 24.4444 16Z" stroke="#272C30" stroke-width="2.4" stroke-linecap="round" stroke-linejoin="round"/>
<path d="M12.8333 20.2222H7.55556C6.97259 20.2222 6.5 20.6948 6.5 21.2778V24.4444C6.5 25.0274 6.97259 25.5 7.55556 25.5H12.8333C13.4163 25.5 13.8889 25.0274 13.8889 24.4444V21.2778C13.8889 20.6948 13.4163 20.2222 12.8333 20.2222Z" stroke="#272C30" stroke-width="2.4" stroke-linecap="round" stroke-linejoin="round"/>
</svg>
